<?xml version="1.0" standalone="no"?>
<!DOCTYPE svg PUBLIC "-//W3C//DTD SVG 20010904//EN"
 "http://www.w3.org/TR/2001/REC-SVG-20010904/DTD/svg10.dtd">
<svg version="1.0" xmlns="http://www.w3.org/2000/svg"
 width="500.000000pt" height="441.000000pt" viewBox="0 0 500.000000 441.000000"
 preserveAspectRatio="xMidYMid meet">

<g transform="translate(0.000000,441.000000) scale(0.100000,-0.100000)"
fill="#000000" stroke="none">
<path d="M2211 4090 c-2 -142 -19 -447 -27 -487 -4 -18 -10 -33 -14 -33 -4 0
-19 23 -34 50 -15 28 -29 50 -32 50 -15 0 58 -112 102 -157 81 -86 133 -71
190 53 38 82 39 85 20 78 -9 -4 -23 17 -44 68 -26 64 -141 408 -155 463 -2 11
-5 -27 -6 -85z"/>
<path d="M3101 4154 c-12 -27 -11 -28 4 -12 10 9 16 21 13 28 -2 7 -10 -1 -17
-16z"/>
<path d="M1888 4114 c2 -18 8 -32 12 -29 8 5 1 53 -9 59 -4 3 -5 -11 -3 -30z"/>
<path d="M3059 4078 c-6 -13 -27 -52 -47 -88 -19 -36 -30 -60 -25 -55 15 14
96 165 89 165 -3 0 -11 -10 -17 -22z"/>
<path d="M3380 4007 c-89 -129 -251 -345 -289 -386 -29 -31 -31 -37 -20 -63
41 -99 155 -51 386 165 53 50 65 57 59 37 -6 -21 -5 -22 4 -7 6 9 8 22 5 27
-3 6 -2 10 2 10 5 0 14 10 22 22 8 13 -32 -21 -89 -75 -57 -53 -107 -97 -112
-97 -4 0 -8 7 -8 16 0 24 46 217 79 334 16 58 28 106 27 107 -1 2 -31 -39 -66
-90z"/>
<path d="M1920 4055 c0 -5 5 -17 10 -25 5 -8 10 -10 10 -5 0 6 -5 17 -10 25
-5 8 -10 11 -10 5z"/>
<path d="M1902 4010 c0 -14 2 -19 5 -12 2 6 2 18 0 25 -3 6 -5 1 -5 -13z"/>
<path d="M3081 3994 c0 -11 3 -14 6 -6 3 7 2 16 -1 19 -3 4 -6 -2 -5 -13z"/>
<path d="M1951 3985 c0 -5 6 -21 14 -35 8 -14 14 -20 14 -15 0 6 -6 21 -14 35
-8 14 -14 21 -14 15z"/>
<path d="M2501 3968 c0 -14 -4 -35 -7 -45 -5 -17 -5 -17 6 0 6 10 9 30 7 45
l-4 27 -2 -27z"/>
<path d="M2765 3836 c-46 -139 -123 -300 -146 -304 -8 -1 -21 9 -29 23 -7 14
-15 23 -17 21 -9 -9 32 -58 55 -67 33 -13 83 13 128 65 43 49 148 207 194 291
52 94 25 58 -49 -66 -37 -62 -72 -114 -78 -116 -8 -3 -11 39 -12 134 -1 75 -3
138 -4 139 -1 1 -20 -53 -42 -120z"/>
<path d="M3071 3934 c0 -11 3 -14 6 -6 3 7 2 16 -1 19 -3 4 -6 -2 -5 -13z"/>
<path d="M1912 3905 c0 -16 2 -22 5 -12 2 9 2 23 0 30 -3 6 -5 -1 -5 -18z"/>
<path d="M1991 3895 c0 -5 6 -21 14 -35 8 -14 14 -20 14 -15 0 6 -6 21 -14 35
-8 14 -14 21 -14 15z"/>
<path d="M2512 3850 c0 -14 2 -19 5 -12 2 6 2 18 0 25 -3 6 -5 1 -5 -13z"/>
<path d="M3062 3850 c0 -14 2 -19 5 -12 2 6 2 18 0 25 -3 6 -5 1 -5 -13z"/>
<path d="M1693 3810 c77 -208 121 -440 83 -440 -30 0 -154 116 -305 285 -29
33 -48 50 -42 38 6 -12 16 -25 21 -28 6 -4 8 -11 4 -16 -3 -5 -2 -8 3 -7 4 2
67 -56 138 -128 167 -169 241 -207 292 -151 33 35 59 157 34 157 -12 0 -94
103 -172 216 -34 49 -59 82 -56 74z"/>
<path d="M1923 3785 c0 -22 2 -30 4 -17 2 12 2 30 0 40 -3 9 -5 -1 -4 -23z"/>
<path d="M2521 3764 c0 -11 3 -14 6 -6 3 7 2 16 -1 19 -3 4 -6 -2 -5 -13z"/>
<path d="M3054 3695 c0 -49 1 -71 3 -48 2 23 2 64 0 90 -2 26 -3 8 -3 -42z"/>
<path d="M2050 3766 c0 -11 40 -86 45 -86 3 0 -4 19 -16 43 -23 45 -29 54 -29
43z"/>
<path d="M1040 3750 c0 -5 4 -12 10 -15 24 -15 239 -381 228 -390 -9 -7 -87
-12 -95 -6 -16 15 -83 53 -83 47 0 -3 19 -16 41 -29 38 -23 39 -26 20 -32 -12
-3 -41 -21 -65 -40 l-44 -33 -80 106 c-44 59 -96 125 -117 147 -20 22 -10 6
23 -35 32 -41 84 -109 114 -151 l56 -75 -31 -38 -32 -37 -90 36 c-49 20 -96
39 -104 42 -8 4 21 -27 63 -68 l78 -74 -41 -70 c-23 -38 -46 -85 -52 -105 -6
-19 -13 -41 -15 -49 -3 -10 -20 0 -57 35 -55 53 -142 125 -167 139 -21 11 -5
-3 60 -55 69 -55 140 -122 140 -132 0 -4 -24 -8 -52 -8 -57 0 -383 26 -433 35
-23 4 -11 -7 50 -46 104 -67 225 -158 225 -170 0 -5 -12 -9 -27 -9 -14 0 -24
-2 -21 -5 9 -9 200 16 235 30 l33 14 10 -38 c15 -57 51 -104 87 -114 25 -7 54
-3 137 23 72 21 116 30 134 25 38 -9 92 -44 92 -59 0 -34 -189 -50 -244 -21
-35 19 -33 19 -40 -8 -3 -15 -13 -23 -28 -23 -13 0 -50 -1 -83 -2 l-60 -3 40
-24 c22 -13 46 -28 54 -32 11 -7 10 -22 -8 -87 -12 -43 -29 -92 -37 -108 -20
-38 -13 -43 71 -60 l59 -11 -49 -18 c-28 -10 -45 -18 -39 -18 6 -1 31 6 55 15
24 9 79 22 123 29 l78 12 -7 -236 c-5 -130 -8 -242 -8 -249 0 -9 -10 -11 -31
-8 l-31 6 28 -11 c24 -10 27 -16 27 -59 0 -67 -13 -97 -68 -154 -26 -27 -39
-46 -29 -42 10 3 28 6 40 7 21 1 21 1 -1 7 -22 7 -22 8 18 47 l40 39 0 -36 c0
-26 -5 -38 -17 -41 -13 -3 -14 -5 -3 -6 12 -1 15 -22 15 -123 l0 -123 35 -17
c19 -10 39 -19 44 -21 6 -2 0 -18 -13 -36 -13 -18 -21 -34 -18 -37 2 -3 27 8
55 25 49 29 52 29 97 15 54 -16 65 -13 58 17 -5 19 -3 21 26 14 30 -6 31 -6
31 29 0 19 5 38 10 41 6 4 10 -20 10 -65 0 -65 2 -71 18 -64 27 12 147 42 151
38 2 -2 -8 -33 -23 -69 -14 -36 -26 -68 -26 -71 0 -3 41 33 91 80 51 47 96 86
100 86 5 0 9 -13 9 -30 0 -16 1 -30 3 -30 1 0 31 9 67 20 36 11 66 20 67 20 1
0 4 -30 6 -67 l3 -68 2 70 2 70 117 32 c110 30 151 34 111 12 -23 -13 -121
-160 -193 -292 -58 -104 -60 -107 -65 -75 -5 30 -6 28 -13 -21 -5 -29 -6 -55
-4 -58 3 -2 33 47 67 109 144 258 221 362 265 356 12 -2 29 -20 43 -48 12 -24
22 -38 22 -31 0 20 -31 81 -41 81 -20 0 -7 18 16 24 20 5 25 13 25 36 0 19 7
33 19 40 38 20 42 13 35 -50 -4 -33 -4 -60 0 -60 4 0 23 7 42 15 32 13 35 13
30 0 -18 -44 -17 -47 5 -15 64 92 124 30 259 -271 37 -83 70 -153 74 -156 3
-4 6 11 6 33 0 28 -3 35 -10 24 -7 -11 -14 -3 -30 35 -58 136 -153 314 -184
348 -31 34 -34 41 -21 54 8 8 15 25 15 39 0 17 7 25 24 30 27 6 30 14 47 137
7 48 17 87 21 87 4 0 35 -54 68 -121 44 -86 59 -127 54 -142 -6 -19 -5 -20 9
-6 8 9 56 40 105 70 78 46 90 57 85 76 -3 15 1 25 15 32 26 14 32 14 32 0 0
-18 90 -148 110 -159 11 -6 60 -11 111 -11 l92 -2 110 -69 c60 -38 111 -67
113 -65 2 2 -25 40 -61 84 l-64 82 43 25 c43 25 176 158 176 176 0 6 12 8 28
5 26 -6 26 -6 7 9 -19 16 -19 17 -1 64 10 26 26 77 35 114 9 37 19 69 21 72 3
2 63 6 133 7 70 1 127 6 127 10 0 5 -28 23 -62 40 -35 17 -89 47 -121 67 l-58
35 3 76 3 76 70 27 c39 15 64 27 57 28 -7 0 -39 -11 -71 -24 l-59 -24 -12 62
c-6 33 -23 87 -37 119 -14 31 -24 59 -22 61 12 11 109 55 109 50 0 -3 -11 -19
-25 -36 -14 -16 -25 -35 -25 -41 0 -7 9 2 19 20 11 17 42 49 69 70 91 71 107
84 95 78 -8 -4 -13 1 -13 12 0 10 -3 28 -6 40 -5 17 -1 22 18 26 23 4 23 4 -2
6 -24 1 -28 10 -71 156 l-46 156 47 42 c63 57 117 130 131 178 12 37 14 39 41
33 16 -3 61 -3 99 1 66 7 70 9 83 39 13 30 130 189 202 273 l35 42 -143 -59
c-79 -32 -180 -72 -225 -89 l-81 -30 -16 25 c-15 22 -15 27 -1 57 14 28 14 30
0 13 -8 -11 -15 -23 -15 -26 0 -4 -24 5 -52 19 -45 22 -66 26 -139 26 -48 0
-85 3 -82 8 2 4 10 7 16 7 15 0 277 127 277 135 0 3 -45 -18 -101 -46 -56 -27
-103 -48 -106 -45 -8 8 5 37 51 119 28 49 38 74 27 65 -11 -7 -68 -50 -127
-96 -60 -46 -139 -97 -176 -115 -37 -18 -67 -36 -67 -40 -1 -4 9 -11 21 -16
24 -9 19 -13 -34 -30 -28 -9 -37 -18 -40 -38 -2 -15 -9 -28 -16 -31 -10 -3
-13 8 -11 44 2 38 0 49 -12 47 -26 -4 -454 -94 -471 -99 -10 -3 -18 -15 -18
-28 0 -26 -17 -46 -41 -46 -10 0 -19 -5 -21 -12 -3 -7 -17 2 -35 22 -31 34
-31 35 -13 60 25 36 103 180 97 180 -3 0 -30 -45 -62 -100 -31 -55 -58 -100
-59 -100 -2 0 -21 8 -42 17 -27 11 -66 16 -126 16 l-88 -1 -6 50 c-8 58 -13
56 -28 -13 l-12 -52 -61 -18 c-53 -17 -61 -23 -66 -48 -3 -16 -13 -31 -22 -35
-14 -5 -16 -1 -10 27 4 17 9 41 12 51 5 18 1 19 -70 13 l-75 -7 -53 120 c-28
66 -55 120 -58 120 -3 0 -4 -24 -2 -52 4 -43 6 -48 10 -23 6 27 10 21 49 -65
45 -100 44 -110 -10 -110 -23 0 -27 -5 -30 -32 -2 -25 -9 -34 -28 -38 -22 -5
-26 -15 -46 -110 -12 -58 -22 -106 -23 -108 -1 -1 -12 4 -24 13 l-24 15 27
140 c24 123 25 140 11 139 -9 0 -68 -10 -131 -23 l-115 -23 -3 -31 c-3 -25 -9
-32 -32 -37 -25 -6 -30 -12 -36 -51 l-6 -45 -34 68 c-24 49 -32 76 -28 97 9
41 -5 137 -19 134 -18 -4 -233 150 -429 309 -43 34 -78 58 -78 53z m1440 -420
c0 -11 -4 -20 -10 -20 -5 0 -10 9 -10 20 0 11 5 20 10 20 6 0 10 -9 10 -20z
m1163 -192 c27 -36 17 -73 -24 -87 -18 -6 -34 -11 -36 -11 -5 0 6 84 14 113 6
23 21 18 46 -15z m-321 -39 c-4 -25 -13 -35 -46 -51 -38 -18 -33 -19 21 -3 21
7 22 5 16 -31 -3 -22 -9 -55 -13 -74 l-7 -35 -8 29 c-8 28 -8 28 -64 22 -31
-4 -81 -9 -113 -13 l-56 -6 16 57 c17 64 44 82 68 47 9 -12 21 -21 27 -21 7 0
4 5 -5 11 -32 18 -19 27 55 36 66 7 72 10 76 33 3 25 19 42 31 35 4 -2 5 -18
2 -36z m-1707 -92 c-2 -7 -11 -68 -20 -137 -9 -69 -20 -129 -24 -133 -5 -5
-11 11 -15 34 -5 33 -18 52 -61 94 -30 29 -55 57 -55 63 0 11 60 32 93 32 10
0 28 -5 40 -11 19 -9 20 -8 6 3 -8 7 -18 23 -21 35 -5 17 0 24 21 31 30 11 42
7 36 -11z m912 1 c15 -14 23 -33 23 -55 0 -28 -5 -35 -36 -48 -20 -8 -39 -15
-41 -15 -5 0 5 93 13 123 7 22 13 22 41 -5z m-567 -47 c-1 -9 -13 -74 -29
-146 -25 -120 -30 -131 -55 -143 -15 -8 -29 -12 -31 -10 -4 3 51 305 61 336 5
18 54 -15 54 -37z m-641 -50 c14 -8 30 -7 61 4 39 14 44 14 56 -2 12 -17 3
-18 -139 -25 -84 -5 -158 -6 -164 -3 -21 7 -15 33 10 39 34 7 154 -1 176 -13z
m1416 -248 c-14 -98 -30 -187 -34 -198 -6 -14 -28 -25 -72 -37 -36 -9 -90 -28
-121 -41 -46 -20 -59 -31 -63 -54 -11 -46 -14 -53 -25 -53 -6 0 -10 24 -10 55
0 38 -4 55 -13 55 -10 0 -9 26 8 121 l20 120 57 23 c81 33 134 68 208 135 36
33 67 58 68 56 2 -2 -8 -84 -23 -182z m539 70 c-4 -32 -10 -62 -14 -66 -7 -8
-187 -36 -232 -37 -21 0 -25 44 -6 57 7 4 51 14 98 23 80 14 85 17 88 42 2 20
10 28 30 31 15 2 30 5 35 6 4 0 4 -25 1 -56z m275 -199 c11 -31 21 -60 21 -65
0 -7 -38 6 -78 27 -5 3 22 94 29 94 3 0 16 -25 28 -56z m-2025 -134 c-13 -85
-24 -158 -24 -162 0 -4 98 26 218 67 360 122 340 114 344 137 3 21 53 47 65
34 3 -3 0 -43 -8 -88 l-14 -83 -95 -31 -95 -31 -9 -41 c-7 -31 -16 -44 -35
-50 -31 -11 -70 -1 -108 26 -41 28 -110 62 -128 62 -9 0 -18 -12 -21 -30 -7
-33 -8 -34 -33 -20 -16 8 -19 3 -25 -43 -3 -29 -6 -79 -6 -112 0 -117 -20
-164 -56 -135 -9 9 -11 37 -7 118 3 59 2 155 -2 214 l-7 107 -29 6 -29 7 35
48 c19 26 47 73 61 105 14 31 27 55 29 53 2 -2 -8 -73 -21 -158z m2336 80
c-24 -19 -40 -25 -40 -15 0 5 51 34 60 34 3 0 -6 -8 -20 -19z m-2880 -4 c0 -2
-3 -11 -6 -20 -5 -12 -10 -13 -25 -5 -11 5 -24 7 -29 4 -5 -3 -22 1 -37 9 -27
15 -27 15 35 16 34 0 62 -2 62 -4z m2543 -10 c39 -16 108 -90 135 -143 28 -55
40 -98 52 -180 18 -134 -21 -395 -81 -538 -74 -176 -267 -303 -421 -279 -34 6
-45 15 -84 70 -83 117 -124 235 -124 357 0 129 66 336 151 479 51 87 157 200
212 227 48 24 113 27 160 7z m-577 -52 c67 -50 90 -119 73 -219 -16 -87 -55
-162 -120 -227 l-57 -58 77 -195 78 -195 -51 -32 c-28 -17 -68 -42 -89 -55
-22 -14 -40 -23 -42 -21 -1 2 -40 77 -85 168 -45 91 -84 167 -86 169 -9 10
-15 -15 -44 -189 -16 -101 -33 -187 -38 -191 -4 -4 -42 -20 -84 -37 l-77 -29
5 66 c3 36 16 270 29 520 13 250 28 457 32 462 13 12 112 49 188 70 98 26 252
23 291 -7z m-1587 -69 c51 -8 98 -18 102 -21 5 -3 9 -99 9 -213 0 -237 0 -238
72 -228 66 9 66 8 84 259 l6 86 36 -17 c20 -9 57 -28 82 -43 25 -15 57 -30 72
-33 l27 -7 -5 -91 c-3 -51 -12 -166 -21 -257 -9 -91 -19 -253 -22 -360 l-6
-195 -95 -20 c-52 -12 -110 -26 -127 -32 l-33 -12 0 158 c0 169 -1 173 -52
185 -18 4 -32 1 -43 -10 -14 -14 -16 -38 -13 -165 2 -82 1 -149 -2 -149 -19 0
-196 53 -221 66 l-31 15 7 202 c3 111 13 355 21 542 8 187 14 346 14 353 0 8
8 11 23 7 12 -2 64 -11 116 -20z m1031 3 c0 -13 3 -68 6 -123 l6 -100 -128
-28 c-71 -15 -132 -31 -137 -36 -10 -10 -42 -189 -35 -196 3 -3 56 5 119 19
63 13 115 23 115 22 1 0 3 -35 5 -76 l4 -74 -125 -36 -125 -35 -9 -68 c-5 -37
-7 -70 -3 -73 3 -3 62 6 132 21 69 15 128 26 129 24 2 -2 1 -59 -2 -125 l-4
-121 -232 -63 c-127 -34 -235 -64 -241 -66 -7 -3 -9 10 -8 33 2 21 17 249 33
507 17 258 32 471 35 474 6 6 435 140 453 141 6 1 12 -9 12 -21z m702 -87
c-20 -32 -42 -67 -48 -77 -8 -14 -10 -3 -6 46 2 36 6 67 8 69 3 3 57 17 76 20
4 1 -9 -25 -30 -58z m-709 -283 c-3 -73 -9 -149 -13 -168 -6 -31 -8 -28 -15
38 -5 44 -12 72 -19 72 -7 0 -52 -9 -102 -20 -127 -28 -123 -29 -113 26 11 58
12 60 51 68 18 3 66 13 106 22 72 16 72 16 72 49 0 30 9 42 32 44 4 1 5 -59 1
-131z m570 -29 c-12 -45 -23 -93 -24 -108 -1 -14 -4 -37 -8 -51 -6 -21 -10
-17 -30 39 -23 62 -23 63 -3 84 10 12 33 43 51 70 18 26 33 47 35 47 2 0 -8
-37 -21 -81z m836 -33 c31 -19 77 -44 104 -57 26 -13 47 -27 47 -31 0 -4 -52
-8 -116 -8 l-117 0 7 46 c3 26 6 55 6 65 0 25 3 24 69 -15z m-1419 -205 c0
-21 -3 -52 -6 -69 -6 -28 -11 -31 -73 -45 -199 -45 -208 -46 -197 -9 5 15 31
26 106 48 l100 27 0 33 c0 26 5 34 28 42 41 16 42 15 42 -27z m-900 -366 c0
-57 -4 -95 -10 -95 -6 0 -10 38 -10 95 0 57 4 95 10 95 6 0 10 -38 10 -95z
m1969 -70 c28 -36 49 -65 45 -65 -10 0 -164 94 -164 101 0 3 15 11 33 17 17 5
33 10 34 11 0 1 24 -28 52 -64z m-1639 -74 c0 -4 -17 -20 -38 -34 -20 -15 -59
-49 -87 -77 -27 -27 -52 -50 -56 -50 -4 0 3 26 16 57 20 49 28 59 56 66 19 4
39 14 44 21 9 12 29 20 58 25 4 0 7 -3 7 -8z m-540 -47 c0 -8 -32 -33 -43 -34
-4 0 -2 9 5 20 12 19 38 28 38 14z"/>
<path d="M3208 3023 c7 -3 16 -2 19 1 4 3 -2 6 -13 5 -11 0 -14 -3 -6 -6z"/>
<path d="M3359 2109 c-41 -24 -93 -103 -115 -176 -34 -108 17 -253 88 -253 39
0 119 76 146 138 58 133 25 312 -57 312 -14 0 -42 -10 -62 -21z m62 -74 c27
-99 -11 -243 -81 -310 l-32 -30 -19 23 c-69 86 -38 279 60 364 33 29 35 30 48
12 7 -10 18 -37 24 -59z"/>
<path d="M2650 2251 c-11 -8 -17 -38 -21 -118 -3 -59 -2 -112 2 -117 12 -14
82 21 119 59 21 22 33 46 37 72 4 34 1 45 -23 71 -31 33 -88 50 -114 33z m60
-129 c11 -13 20 -31 20 -38 0 -14 -78 -59 -87 -50 -3 2 -2 32 2 64 6 53 9 59
26 55 11 -3 28 -17 39 -31z"/>
<path d="M3496 3715 c-9 -26 -7 -32 5 -12 6 10 9 21 6 23 -2 3 -7 -2 -11 -11z"/>
<path d="M2531 3704 c0 -11 3 -14 6 -6 3 7 2 16 -1 19 -3 4 -6 -2 -5 -13z"/>
<path d="M4018 3634 c-27 -13 -48 -27 -48 -29 0 -3 23 6 50 20 28 14 50 28 50
30 0 7 1 7 -52 -21z"/>
<path d="M4047 3578 c-51 -78 -86 -139 -74 -128 5 4 110 164 131 198 4 6 5 12
2 12 -3 0 -29 -37 -59 -82z"/>
<path d="M1933 3595 c0 -27 2 -38 4 -22 2 15 2 37 0 50 -2 12 -4 0 -4 -28z"/>
<path d="M1470 3605 c0 -5 5 -17 10 -25 5 -8 10 -10 10 -5 0 6 -5 17 -10 25
-5 8 -10 11 -10 5z"/>
<path d="M802 3564 c10 -10 20 -15 24 -12 3 4 -5 12 -18 18 -22 12 -22 12 -6
-6z"/>
<path d="M2885 3530 c-9 -18 -12 -29 -6 -26 7 5 11 -2 12 -16 1 -13 5 -3 10
21 11 56 5 62 -16 21z"/>
<path d="M3441 3544 c0 -11 3 -14 6 -6 3 7 2 16 -1 19 -3 4 -6 -2 -5 -13z"/>
<path d="M840 3547 c0 -3 28 -23 63 -44 84 -53 87 -55 87 -49 0 2 -24 19 -52
37 -29 17 -63 38 -75 47 -13 8 -23 12 -23 9z"/>
<path d="M1000 3446 c0 -3 9 -10 20 -16 11 -6 20 -8 20 -6 0 3 -9 10 -20 16
-11 6 -20 8 -20 6z"/>
<path d="M2882 3430 c0 -14 2 -19 5 -12 2 6 2 18 0 25 -3 6 -5 1 -5 -13z"/>
<path d="M1050 3416 c0 -3 9 -10 20 -16 11 -6 20 -8 20 -6 0 3 -9 10 -20 16
-11 6 -20 8 -20 6z"/>
<path d="M2053 3355 c0 -22 2 -30 4 -17 2 12 2 30 0 40 -3 9 -5 -1 -4 -23z"/>
<path d="M2872 3360 c0 -19 2 -27 5 -17 2 9 2 25 0 35 -3 9 -5 1 -5 -18z"/>
<path d="M2862 3285 c0 -16 2 -22 5 -12 2 9 2 23 0 30 -3 6 -5 -1 -5 -18z"/>
<path d="M4264 3132 c-88 -95 -116 -141 -118 -194 -1 -34 4 -45 32 -68 31 -25
98 -49 178 -63 26 -5 33 -2 42 17 10 22 109 113 172 159 17 12 19 16 7 13 -46
-14 -246 -25 -299 -16 -62 10 -98 25 -98 41 0 5 39 50 86 99 48 50 83 90 78
89 -5 0 -41 -35 -80 -77z"/>
<path d="M4443 2793 c9 -2 23 -2 30 0 6 3 -1 5 -18 5 -16 0 -22 -2 -12 -5z"/>
<path d="M4563 2783 c15 -2 37 -2 50 0 12 2 0 4 -28 4 -27 0 -38 -2 -22 -4z"/>
<path d="M4592 2716 c-90 -61 -137 -99 -77 -61 79 49 189 125 180 124 -6 0
-52 -29 -103 -63z"/>
<path d="M153 2654 c7 -7 229 -6 236 2 2 2 -51 4 -119 4 -68 0 -121 -3 -117
-6z"/>
<path d="M191 2636 c10 -9 109 -56 109 -51 0 5 -95 55 -106 55 -4 0 -5 -2 -3
-4z"/>
<path d="M4403 2580 c-82 -68 -112 -106 -120 -154 -9 -58 45 -112 153 -150 37
-13 41 -12 52 5 19 29 128 99 275 175 l138 71 -108 17 c-147 24 -296 63 -309
80 -8 12 -23 4 -81 -44z"/>
<path d="M3980 2562 c-9 -9 -27 -25 -40 -35 -25 -18 -25 -18 6 -1 47 25 81 54
64 53 -8 0 -22 -8 -30 -17z"/>
<path d="M330 2567 c0 -3 28 -21 63 -42 34 -20 55 -30 47 -22 -18 17 -110 71
-110 64z"/>
<path d="M460 2486 c0 -2 8 -10 18 -17 15 -13 16 -12 3 4 -13 16 -21 21 -21
13z"/>
<path d="M513 2443 c9 -11 17 -22 17 -26 0 -8 -59 -24 -163 -43 l-88 -17 53
-18 c72 -25 161 -71 165 -86 3 -6 -13 -21 -34 -32 -21 -11 -33 -20 -27 -21 18
0 99 56 122 85 12 15 22 40 22 55 0 26 -46 101 -72 116 -7 4 -5 -2 5 -13z"/>
<path d="M3720 2293 c0 -23 102 -83 140 -83 8 0 -12 12 -45 25 -33 14 -68 34
-77 46 -10 12 -18 17 -18 12z"/>
<path d="M4578 2233 c7 -3 16 -2 19 1 4 3 -2 6 -13 5 -11 0 -14 -3 -6 -6z"/>
<path d="M3895 2202 c19 -9 19 -9 0 -21 -18 -11 -17 -12 10 -6 16 4 32 9 34
11 7 7 -3 12 -34 18 -21 5 -24 4 -10 -2z"/>
<path d="M390 2190 c-8 -5 -10 -10 -5 -10 6 0 17 5 25 10 8 5 11 10 5 10 -5 0
-17 -5 -25 -10z"/>
<path d="M4343 2150 c-125 -61 -152 -117 -94 -197 28 -39 154 -130 241 -173
65 -32 43 -15 -41 33 -40 23 -74 47 -77 54 -8 28 178 94 317 111 l56 7 -65 24
c-134 48 -240 122 -240 166 0 21 -5 20 -97 -25z"/>
<path d="M208 2123 c7 -3 16 -2 19 1 4 3 -2 6 -13 5 -11 0 -14 -3 -6 -6z"/>
<path d="M855 2120 c-3 -5 -3 -10 2 -10 4 0 19 -3 33 -7 23 -6 24 -6 8 10 -19
19 -34 22 -43 7z"/>
<path d="M973 2076 c73 -31 97 -52 97 -85 0 -42 -52 -94 -176 -178 -63 -43
-110 -79 -104 -81 6 -2 17 2 23 10 7 8 51 41 99 72 151 100 200 174 148 226
-21 21 -77 47 -119 56 -14 3 0 -6 32 -20z"/>
<path d="M423 2053 c26 -14 47 -30 47 -33 0 -13 -81 -61 -217 -132 -101 -52
-127 -69 -110 -73 12 -2 65 -12 117 -21 52 -9 97 -18 100 -21 2 -2 -9 -15 -25
-29 -18 -16 -11 -13 19 8 66 45 153 141 161 177 9 42 -17 87 -73 122 -25 16
-51 29 -56 29 -6 0 10 -12 37 -27z"/>
<path d="M863 1723 c15 -2 39 -2 55 0 15 2 2 4 -28 4 -30 0 -43 -2 -27 -4z"/>
<path d="M4614 1715 c22 -17 40 -20 32 -6 -3 5 -16 11 -28 14 -22 6 -22 5 -4
-8z"/>
<path d="M262 1696 c-46 -33 -53 -43 -14 -20 19 10 38 25 44 32 15 17 8 14
-30 -12z"/>
<path d="M983 1713 c9 -2 23 -2 30 0 6 3 -1 5 -18 5 -16 0 -22 -2 -12 -5z"/>
<path d="M1048 1703 c6 -2 18 -2 25 0 6 3 1 5 -13 5 -14 0 -19 -2 -12 -5z"/>
<path d="M4230 1700 c-178 -12 -262 -38 -292 -93 -16 -31 27 -100 110 -178 69
-64 112 -96 112 -86 0 2 -27 25 -60 51 -33 26 -60 51 -60 56 0 36 223 43 508
16 89 -9 166 -16 170 -16 4 0 -29 23 -73 51 -96 62 -245 177 -245 189 0 5 28
11 63 13 45 2 38 3 -28 4 -49 0 -142 -3 -205 -7z"/>
<path d="M4558 1703 c6 -2 18 -2 25 0 6 3 1 5 -13 5 -14 0 -19 -2 -12 -5z"/>
<path d="M145 1620 c-33 -22 -52 -40 -42 -40 9 0 17 4 17 8 0 5 18 18 40 31
22 12 42 26 45 31 9 14 6 13 -60 -30z"/>
<path d="M248 1573 c12 -2 30 -2 40 0 9 3 -1 5 -23 4 -22 0 -30 -2 -17 -4z"/>
<path d="M368 1563 c6 -2 18 -2 25 0 6 3 1 5 -13 5 -14 0 -19 -2 -12 -5z"/>
<path d="M540 1530 c8 -5 20 -10 25 -10 6 0 3 5 -5 10 -8 5 -19 10 -25 10 -5
0 -3 -5 5 -10z"/>
<path d="M581 1479 c-13 -17 -53 -53 -89 -80 l-66 -50 60 8 c32 4 79 8 104 8
25 0 48 5 52 10 16 22 8 84 -14 109 l-23 25 -24 -30z"/>
<path d="M2984 1406 c-3 -13 -4 -35 -1 -47 3 -17 5 -14 6 12 0 19 6 40 13 47
9 9 9 12 0 12 -6 0 -14 -11 -18 -24z"/>
<path d="M3710 1393 c-63 -23 -67 -89 -12 -196 38 -73 146 -226 229 -323 23
-28 43 -56 43 -62 0 -5 7 -13 16 -16 13 -5 14 -3 7 6 -5 7 -44 56 -85 108 -91
114 -198 269 -198 287 0 7 9 17 19 23 53 28 198 -2 402 -83 l106 -43 -82 81
c-84 82 -150 169 -141 184 13 20 -258 51 -304 34z"/>
<path d="M595 1313 c-16 -21 -46 -59 -69 -84 -23 -25 -13 -16 22 20 57 58 90
101 79 101 -3 0 -17 -17 -32 -37z"/>
<path d="M2855 1308 c35 -24 215 -209 215 -220 0 -4 4 -8 10 -8 5 0 -5 33 -22
73 -17 39 -39 97 -49 127 -10 30 -18 46 -18 35 0 -11 13 -54 29 -95 17 -41 30
-78 30 -81 0 -3 -44 38 -99 92 -54 55 -104 99 -112 99 -8 0 0 -10 16 -22z"/>
<path d="M4170 1325 c0 -2 10 -10 23 -16 20 -11 21 -11 8 4 -13 16 -31 23 -31
12z"/>
<path d="M2732 1255 c0 -16 2 -22 5 -12 2 9 2 23 0 30 -3 6 -5 -1 -5 -18z"/>
<path d="M668 1203 c6 -2 18 -2 25 0 6 3 1 5 -13 5 -14 0 -19 -2 -12 -5z"/>
<path d="M827 1141 c-26 -47 -125 -178 -201 -267 l-36 -42 93 40 c50 22 103
41 117 41 29 2 48 28 78 110 28 74 28 109 0 142 l-23 26 -28 -50z"/>
<path d="M508 1173 c7 -3 16 -2 19 1 4 3 -2 6 -13 5 -11 0 -14 -3 -6 -6z"/>
<path d="M450 1160 c0 -5 7 -7 15 -4 8 4 15 8 15 10 0 2 -7 4 -15 4 -8 0 -15
-4 -15 -10z"/>
<path d="M2381 1139 c-6 -18 -11 -37 -10 -43 0 -6 7 7 15 28 8 22 12 41 10 43
-2 2 -9 -10 -15 -28z"/>
<path d="M3256 1139 c-23 -18 -26 -28 -26 -80 l0 -60 27 21 c21 17 35 20 63
15 76 -14 246 -124 494 -319 170 -135 177 -139 144 -95 -35 46 -178 281 -178
292 0 5 16 -1 35 -13 19 -12 35 -19 35 -16 0 8 -255 158 -346 204 -78 39 -171
72 -204 72 -10 0 -29 -9 -44 -21z"/>
<path d="M2292 1100 c0 -14 2 -19 5 -12 2 6 2 18 0 25 -3 6 -5 1 -5 -13z"/>
<path d="M2733 1045 c0 -27 2 -38 4 -22 2 15 2 37 0 50 -2 12 -4 0 -4 -28z"/>
<path d="M2361 1064 c0 -11 3 -14 6 -6 3 7 2 16 -1 19 -3 4 -6 -2 -5 -13z"/>
<path d="M2302 1045 c0 -16 2 -22 5 -12 2 9 2 23 0 30 -3 6 -5 -1 -5 -18z"/>
<path d="M2351 1024 c0 -11 3 -14 6 -6 3 7 2 16 -1 19 -3 4 -6 -2 -5 -13z"/>
<path d="M2911 1007 c-14 -18 -41 -83 -41 -101 0 -11 7 -8 25 9 13 14 35 25
48 25 50 0 160 -104 274 -260 39 -52 75 -106 82 -118 25 -46 19 -15 -14 92
-19 60 -35 113 -35 118 0 18 17 5 65 -51 27 -33 52 -58 54 -55 2 2 -3 12 -12
22 -10 10 -14 22 -10 26 5 4 4 6 -2 5 -5 -2 -68 56 -140 128 -72 72 -149 140
-172 152 -48 24 -105 28 -122 8z"/>
<path d="M1922 975 c0 -16 2 -22 5 -12 2 9 2 23 0 30 -3 6 -5 -1 -5 -18z"/>
<path d="M2340 982 c0 -29 -20 -39 -21 -10 -1 13 -3 16 -5 8 -3 -9 -1 -33 4
-55 l8 -40 13 53 c7 29 10 56 7 59 -3 4 -6 -3 -6 -15z"/>
<path d="M1228 943 c7 -3 16 -2 19 1 4 3 -2 6 -13 5 -11 0 -14 -3 -6 -6z"/>
<path d="M1300 932 c0 -32 -28 -102 -78 -191 -26 -47 -49 -90 -51 -95 -2 -4
31 20 73 55 58 47 79 60 86 50 5 -9 12 12 20 55 13 77 5 115 -30 134 -17 9
-20 8 -20 -8z"/>
<path d="M2742 920 c0 -19 2 -27 5 -17 2 9 2 25 0 35 -3 9 -5 1 -5 -18z"/>
<path d="M1912 900 c0 -14 2 -19 5 -12 2 6 2 18 0 25 -3 6 -5 1 -5 -13z"/>
<path d="M2461 885 c-17 -15 -36 -37 -42 -49 -7 -14 -3 -12 11 7 30 37 59 34
102 -10 64 -66 125 -208 222 -513 l55 -175 1 134 c0 117 2 132 15 121 8 -7 15
-9 15 -5 0 4 -42 93 -94 199 -74 150 -105 203 -148 248 -65 71 -93 79 -137 43z"/>
<path d="M753 805 c-34 -52 -60 -95 -58 -95 5 0 96 134 114 168 24 46 4 19
-56 -73z"/>
<path d="M968 839 c-65 -32 -118 -61 -118 -64 0 -5 239 112 249 121 16 15 -30
-5 -131 -57z"/>
<path d="M3875 865 c11 -9 29 -21 40 -26 l20 -10 -20 16 c-11 9 -29 21 -40 26
l-20 10 20 -16z"/>
<path d="M1658 850 c20 -8 22 -16 22 -80 0 -39 -9 -115 -20 -168 -19 -89 -77
-310 -95 -357 -4 -11 20 21 55 70 34 50 71 98 83 108 12 10 23 37 28 65 12 71
10 275 -2 311 -11 30 -53 62 -81 60 -7 0 -3 -4 10 -9z"/>
<path d="M2083 828 c-21 -18 -46 -42 -55 -53 -27 -31 -122 -174 -152 -230 -32
-60 -24 -48 75 104 74 114 158 206 182 199 46 -14 84 -221 74 -402 l-5 -89 30
92 c18 56 33 89 40 85 23 -14 -20 202 -53 268 -34 67 -79 75 -136 26z"/>
<path d="M2864 760 c0 -58 1 -81 3 -52 2 28 2 76 0 105 -2 28 -3 5 -3 -53z"/>
<path d="M3280 855 c0 -5 5 -17 10 -25 5 -8 10 -10 10 -5 0 6 -5 17 -10 25 -5
8 -10 11 -10 5z"/>
<path d="M1575 830 c-3 -6 1 -7 9 -4 18 7 21 14 7 14 -6 0 -13 -4 -16 -10z"/>
<path d="M3301 805 c0 -5 6 -21 14 -35 8 -14 14 -20 14 -15 0 6 -6 21 -14 35
-8 14 -14 21 -14 15z"/>
<path d="M1480 764 c-58 -46 -240 -221 -240 -230 0 -4 46 37 103 92 56 55 122
116 147 137 25 20 43 37 40 37 -3 0 -25 -16 -50 -36z"/>
<path d="M788 744 c-27 -13 -48 -27 -48 -29 0 -3 23 6 50 20 28 14 50 28 50
30 0 7 1 7 -52 -21z"/>
<path d="M710 700 c-9 -6 -10 -10 -3 -10 6 0 15 5 18 10 8 12 4 12 -15 0z"/>
<path d="M670 685 c-8 -9 -8 -15 -2 -15 12 0 26 19 19 26 -2 2 -10 -2 -17 -11z"/>
<path d="M1276 615 c-9 -26 -7 -32 5 -12 6 10 9 21 6 23 -2 3 -7 -2 -11 -11z"/>
<path d="M2872 540 c0 -19 2 -27 5 -17 2 9 2 25 0 35 -3 9 -5 1 -5 -18z"/>
<path d="M2311 504 c0 -11 3 -14 6 -6 3 7 2 16 -1 19 -3 4 -6 -2 -5 -13z"/>
<path d="M2282 490 c0 -14 2 -19 5 -12 2 6 2 18 0 25 -3 6 -5 1 -5 -13z"/>
<path d="M1837 483 c-49 -89 -78 -146 -70 -138 14 14 86 145 79 145 -2 0 -7
-3 -9 -7z"/>
<path d="M2882 435 c0 -16 2 -22 5 -12 2 9 2 23 0 30 -3 6 -5 -1 -5 -18z"/>
<path d="M2292 405 c0 -16 2 -22 5 -12 2 9 2 23 0 30 -3 6 -5 -1 -5 -18z"/>
<path d="M2850 355 c0 -5 5 -17 10 -25 5 -8 10 -10 10 -5 0 6 -5 17 -10 25 -5
8 -10 11 -10 5z"/>
<path d="M2892 330 c0 -14 2 -19 5 -12 2 6 2 18 0 25 -3 6 -5 1 -5 -13z"/>
<path d="M1729 288 c-12 -24 -27 -50 -34 -58 -15 -19 -30 -59 -17 -45 15 15
85 145 78 145 -3 0 -15 -19 -27 -42z"/>
<path d="M2891 263 c0 -4 4 -17 9 -28 8 -19 9 -19 9 2 1 12 -3 25 -9 28 -5 3
-10 3 -9 -2z"/>
</g>
</svg>
